# xmcd
#
# Track frame offsets: 
#        150
#        10411
#        22835
#        31971
#        41002
#        52143
#        64329
#        74412
#        88446
#        99311
#        111733
#        121431
#        133680
#        144314
#        153091
#        163550
#        174090
#
# Disc length: 2494 seconds
#
# Revision: 0
# Processed by: cddbd v1.5.2PL0 Copyright (c) Steve Scherf et al.
# Submitted via: ExactAudioCopy v0.99pb5
#
DISCID=eb09bc11
DTITLE=The Perfect Stranger - Highway 54
DYEAR=2009
DGENRE=Country
TTITLE0=Saturday Night Boogie
TTITLE1=Tell Me
TTITLE2=Treat Me Right
TTITLE3=Los Banditios
TTITLE4=Cracks In The Wall
TTITLE5=Real Hot Mama
TTITLE6=Shake 'em Down
TTITLE7=When It's Cold At Night
TTITLE8=One More Tequila
TTITLE9=The Perfect Stranger
TTITLE10=Best Dressed Beggar In Town
TTITLE11=Lipstick Dan
TTITLE12=Last Train To Vladivostok
TTITLE13=Turn Off The Light
TTITLE14=A Sinner's Prayer
TTITLE15=Morse Code
TTITLE16=Rock Ola Ruby
EXTD=
EXTT0=
EXTT1=
EXTT2=
EXTT3=
EXTT4=
EXTT5=
EXTT6=
EXTT7=
EXTT8=
EXTT9=
EXTT10=
EXTT11=
EXTT12=
EXTT13=
EXTT14=
EXTT15=
EXTT16=
PLAYORDER=
